<?xml version="1.0" standalone="no"?>
<!DOCTYPE svg PUBLIC "-//W3C//DTD SVG 20010904//EN"
 "http://www.w3.org/TR/2001/REC-SVG-20010904/DTD/svg10.dtd">
<svg version="1.0" xmlns="http://www.w3.org/2000/svg"
 width="750.000000pt" height="750.000000pt" viewBox="0 0 750.000000 750.000000"
 preserveAspectRatio="xMidYMid meet">

<g transform="translate(0.000000,750.000000) scale(0.100000,-0.100000)"
fill="#000000" stroke="none">
<path d="M3495 7489 c-211 -14 -416 -45 -645 -100 -171 -41 -189 -49 -215 -94
-13 -22 -132 -229 -266 -460 -133 -231 -460 -798 -727 -1260 -1329 -2301
-1196 -2066 -1179 -2094 16 -28 704 -1220 1410 -2444 l432 -747 100 -39 c650
-251 1393 -314 2081 -176 616 123 1205 408 1681 812 153 130 392 375 512 526
492 619 765 1337 812 2136 62 1041 -330 2077 -1069 2825 -326 330 -647 560
-1056 756 -582 280 -1217 402 -1871 359z m2598 -2220 c363 -54 666 -308 775
-649 36 -113 46 -181 45 -310 -1 -101 -6 -145 -27 -225 -80 -308 -305 -556
-603 -664 l-78 -29 -3 -251 -2 -250 52 -27 c68 -34 88 -52 88 -79 0 -41 -16
-45 -181 -45 -138 0 -160 2 -180 19 -22 18 -23 18 -43 0 -18 -17 -38 -19 -182
-19 -134 0 -164 3 -174 16 -24 28 0 64 68 102 l62 34 0 252 0 251 -71 25 c-39
13 -105 43 -146 66 -399 228 -581 696 -441 1134 139 435 591 717 1041 649z
m-1826 -877 c39 -20 123 -97 123 -113 0 -3 -22 -15 -49 -27 l-48 -20 -22 53
c-29 71 -68 106 -123 112 -56 5 -92 -14 -96 -51 -5 -38 22 -65 143 -143 164
-106 205 -155 205 -241 0 -98 -70 -155 -189 -154 -80 1 -122 13 -173 48 -33
23 -108 111 -108 127 0 7 86 57 97 57 5 0 17 -24 26 -54 23 -72 88 -144 140
-156 52 -11 101 4 115 36 29 62 11 85 -147 194 -66 45 -136 99 -155 120 -69
76 -54 173 34 218 38 20 56 23 115 19 45 -2 85 -11 112 -25z m-2238 -216 c67
-129 132 -254 147 -278 l25 -43 -3 278 c-2 216 0 277 10 277 9 0 12 -66 12
-295 l0 -296 -92 3 -91 3 -137 262 c-75 145 -140 266 -144 270 -4 5 -6 -115
-4 -265 2 -213 0 -272 -9 -272 -10 0 -13 66 -13 295 l0 295 89 0 90 0 120
-234z m721 227 c0 -5 -10 -21 -23 -36 l-22 -28 -41 20 c-23 11 -71 23 -108 27
l-66 7 0 -127 0 -126 90 0 c74 0 90 -3 90 -15 0 -14 -13 -15 -90 -9 l-90 7 0
-143 0 -143 88 5 c48 3 106 13 130 23 50 20 57 17 41 -19 l-12 -26 -206 0
-206 0 3 295 3 295 209 0 c116 0 210 -3 210 -7z m304 -110 c28 -61 54 -115 58
-118 4 -4 34 47 67 114 34 67 66 121 71 121 17 0 12 -11 -55 -139 -36 -68 -65
-127 -65 -131 0 -6 101 -220 148 -312 2 -5 -37 -8 -87 -8 -91 0 -92 0 -102 28
-20 55 -93 202 -99 202 -4 0 -34 -52 -66 -115 -33 -63 -65 -115 -71 -115 -7 0
19 60 57 133 l70 133 -77 155 c-43 85 -79 158 -81 162 -2 4 37 6 88 5 l92 -3
52 -112z m471 -105 c0 -193 3 -230 18 -271 25 -63 58 -81 145 -75 57 4 68 8
92 35 42 47 52 112 49 333 -2 156 0 195 10 195 11 0 13 -40 12 -200 -2 -215
-10 -276 -44 -327 -36 -53 -77 -70 -166 -70 -135 0 -199 31 -243 116 -20 37
-23 63 -28 256 -4 118 -5 218 -3 223 2 4 39 7 81 7 l77 0 0 -222z m-1468 -822
c26 -13 60 -37 74 -53 35 -37 63 -82 56 -89 -6 -6 -107 -34 -124 -34 -7 0 -13
10 -13 23 0 44 -32 117 -62 142 -36 30 -81 32 -124 6 -88 -54 -118 -294 -54
-427 32 -65 79 -97 150 -102 106 -8 176 43 226 165 13 32 24 49 24 38 0 -33
-55 -138 -91 -174 -52 -52 -102 -71 -191 -71 -139 0 -237 59 -290 175 -47 104
-23 261 50 338 89 93 255 122 369 63z m-688 -18 c5 -18 38 -136 72 -263 34
-126 68 -242 76 -257 l14 -28 -88 0 -88 0 -25 103 -26 102 -96 3 -97 3 -10
-38 c-5 -21 -17 -68 -27 -105 -11 -44 -21 -68 -31 -68 -10 0 -11 5 -4 18 15
28 141 507 141 535 l0 27 89 0 89 0 11 -32z m1305 -191 c54 -199 79 -286 101
-339 6 -16 -1 -18 -84 -18 -86 0 -91 1 -91 21 0 12 -10 59 -22 105 l-22 84
-96 0 -96 0 -22 -84 c-12 -46 -22 -93 -22 -105 0 -13 -6 -21 -16 -21 -11 0
-14 5 -10 17 12 30 146 536 146 550 0 10 22 13 88 13 l87 0 59 -223z m591 195
c60 -28 100 -64 128 -117 18 -33 22 -57 22 -140 0 -93 -2 -104 -31 -155 -23
-41 -45 -63 -83 -87 -71 -43 -127 -53 -289 -53 l-137 0 0 291 0 291 170 -4
c152 -3 175 -6 220 -26z m655 -1 l-20 -30 -47 21 c-26 11 -75 23 -110 26 l-63
5 0 -133 0 -133 90 6 c76 6 90 4 90 -8 0 -12 -14 -14 -90 -8 l-90 6 0 -142 0
-141 78 0 c49 1 97 8 132 20 30 10 56 17 58 16 1 -2 -2 -15 -7 -30 l-11 -26
-202 0 -203 0 0 290 0 290 208 0 208 0 -21 -29z m300 9 c6 -12 44 -97 85 -191
40 -94 75 -172 77 -175 3 -2 39 84 82 191 l78 195 81 0 82 0 0 -290 0 -290
-80 0 -80 0 2 272 c2 233 0 269 -11 243 -7 -16 -57 -142 -111 -278 -75 -189
-102 -247 -114 -245 -9 2 -54 93 -121 249 -58 135 -110 256 -117 270 -10 19
-12 -29 -10 -244 2 -232 0 -267 -13 -267 -13 0 -15 39 -15 290 l0 290 87 0
c78 0 89 -2 98 -20z m834 -125 c38 -80 72 -145 76 -145 7 0 130 266 130 281 0
5 6 9 14 9 9 0 -12 -56 -66 -172 l-81 -173 5 -117 5 -118 -81 0 -81 0 3 118 4
119 -84 164 c-45 90 -84 167 -86 172 -2 4 36 7 85 7 l88 -1 69 -144z"/>
<path d="M5490 5078 c-13 -5 -27 -12 -30 -16 -10 -14 -80 -45 -87 -39 -3 4 2
17 13 29 10 13 -10 -2 -45 -32 -51 -45 -76 -77 -127 -170 -35 -63 -79 -148
-97 -190 -30 -71 -32 -81 -31 -190 2 -113 19 -190 43 -190 5 0 17 -21 27 -47
10 -27 27 -61 38 -77 15 -23 20 -43 18 -88 -3 -61 12 -101 68 -183 15 -22 45
-76 67 -121 47 -97 91 -153 147 -190 l41 -27 -33 37 c-29 33 -32 43 -27 75 4
20 8 49 9 65 2 19 10 32 23 37 15 5 23 20 28 51 3 24 9 57 11 73 7 39 -19 73
-80 105 -26 14 -47 34 -50 46 -8 31 -92 121 -130 139 -18 9 -43 14 -56 13 -19
-2 -26 3 -33 27 -5 17 -13 38 -18 47 -5 10 -9 31 -9 48 0 16 -4 30 -10 30 -5
0 -10 -5 -10 -11 0 -5 -4 -7 -10 -4 -12 7 -13 95 -2 113 7 9 15 10 35 3 21 -8
27 -17 27 -41 0 -18 4 -29 10 -25 6 3 10 21 10 39 0 34 18 60 89 131 18 18 39
31 45 29 6 -2 20 2 31 11 16 12 17 16 6 24 -21 14 -9 33 29 45 35 11 35 12 38
75 3 56 1 63 -14 57 -13 -5 -15 -2 -10 18 14 58 -37 37 -81 -33 l-28 -45 -3
44 c-3 37 1 47 30 77 18 19 34 29 36 23 2 -5 17 -10 33 -10 23 0 29 -4 29 -21
0 -25 21 -21 35 8 6 11 15 18 21 16 8 -3 12 16 13 57 0 55 4 64 28 83 37 30
72 47 92 46 9 0 1 -7 -16 -15 -34 -14 -45 -44 -18 -44 8 0 15 -2 15 -4 0 -16
-33 -91 -50 -114 -15 -20 -20 -40 -18 -63 4 -44 27 -47 53 -7 15 23 36 37 79
52 53 19 86 46 56 46 -14 0 8 23 31 32 9 3 24 23 34 45 10 21 25 43 34 50 14
11 13 12 -7 13 -13 0 -21 4 -18 8 2 4 1 14 -3 21 -6 10 -17 10 -48 2 -42 -11
-77 -6 -67 10 3 5 -15 9 -41 9 -31 0 -47 -5 -51 -15 -4 -8 -10 -15 -16 -15 -5
0 -6 5 -2 12 5 8 2 9 -9 5 -10 -4 -27 -3 -40 2 -12 5 -33 4 -47 -1z"/>
<path d="M6248 5068 c7 -9 28 -19 47 -22 35 -7 44 -19 24 -32 -6 -3 -9 -15 -6
-25 3 -11 1 -19 -4 -19 -4 0 -6 -7 -3 -15 10 -24 -12 -17 -29 9 -18 26 -65 40
-84 24 -18 -14 -16 -63 2 -78 18 -15 20 -43 3 -38 -7 3 -22 -5 -33 -16 -18
-17 -20 -26 -11 -48 8 -22 5 -37 -19 -85 -15 -32 -39 -73 -53 -91 -13 -18 -22
-34 -21 -36 2 -1 27 -8 54 -14 76 -20 114 -55 165 -157 37 -73 50 -91 70 -93
14 -2 30 -8 37 -14 6 -5 26 -7 44 -4 26 4 37 -1 61 -26 15 -16 28 -39 28 -49
0 -26 30 -99 41 -99 5 0 9 16 9 35 0 45 49 147 70 143 8 -2 16 -12 19 -23 2
-11 8 -23 14 -27 6 -3 14 -34 18 -68 4 -34 13 -67 19 -74 10 -8 11 -3 6 27 -4
21 -10 45 -13 54 -5 12 -1 14 14 9 28 -9 35 23 21 86 -8 34 -9 52 -1 56 18 12
33 50 33 84 0 35 -30 131 -42 136 -11 5 -10 32 1 32 5 0 16 -10 24 -22 14 -21
14 -19 2 22 -8 25 -20 72 -27 105 -8 41 -21 69 -41 90 -30 31 -58 79 -55 92 0
4 -2 20 -6 34 -8 28 -116 141 -116 121 0 -7 -11 -12 -25 -12 -18 0 -23 -4 -18
-16 5 -14 3 -15 -15 -5 -15 8 -22 8 -22 1 0 -15 -36 -12 -50 5 -7 8 -21 15
-31 15 -10 0 -20 4 -23 9 -3 5 -16 11 -28 14 -13 2 -32 8 -43 13 -17 7 -18 6
-7 -8z"/>
<path d="M5863 4960 c-39 -24 -59 -54 -68 -103 -4 -20 -11 -40 -16 -43 -5 -3
-9 -14 -9 -24 0 -23 44 -114 76 -157 28 -37 31 -63 7 -63 -39 0 -95 -23 -127
-51 -39 -34 -86 -137 -117 -257 -15 -58 -19 -95 -15 -148 7 -84 46 -278 58
-282 4 -2 8 -14 8 -26 0 -23 33 -74 57 -89 10 -6 13 -95 13 -422 l0 -415 -48
-24 c-68 -35 -97 -60 -89 -79 6 -15 26 -17 159 -17 84 0 159 4 166 9 10 6 14
85 18 347 3 187 9 365 13 395 7 48 8 40 14 -71 4 -69 9 -246 13 -395 4 -188 9
-272 17 -277 7 -4 81 -8 165 -8 127 0 154 3 158 15 9 22 -12 43 -78 76 l-58
29 0 416 c0 389 1 416 18 420 20 6 62 63 62 85 0 8 5 20 10 25 16 16 60 251
60 320 0 75 -37 209 -85 303 -30 61 -40 72 -87 95 -28 14 -67 26 -85 26 -28 0
-33 4 -33 24 0 13 7 29 15 36 9 7 32 46 51 86 34 69 35 73 20 102 -9 17 -16
39 -16 49 0 32 -39 84 -75 99 -50 21 -133 18 -172 -6z m157 -427 c0 -3 -14
-28 -31 -55 l-31 -49 41 -119 42 -120 -37 -61 c-21 -33 -41 -62 -45 -65 -4 -2
-27 24 -50 58 l-43 63 43 122 42 122 -30 45 c-17 25 -31 49 -31 55 0 7 26 11
65 11 36 0 65 -3 65 -7z"/>
<path d="M6325 4305 c3 -11 11 -41 17 -68 13 -54 25 -56 53 -5 19 36 19 37 1
57 -13 14 -26 19 -39 15 -11 -4 -24 0 -29 7 -7 10 -8 8 -3 -6z"/>
<path d="M1197 3333 c-44 -161 -79 -305 -75 -309 3 -2 44 -4 90 -2 l85 3 -43
159 c-24 87 -45 160 -48 163 -2 2 -6 -4 -9 -14z"/>
<path d="M2415 3198 c-22 -84 -41 -158 -43 -165 -3 -10 18 -13 88 -13 83 0 92
2 88 18 -51 188 -82 298 -87 304 -4 4 -24 -61 -46 -144z"/>
<path d="M3030 3096 l0 -276 53 0 c109 0 167 80 175 240 10 194 -46 294 -171
307 l-57 6 0 -277z"/>
<path d="M1973 7050 c-188 -101 -408 -248 -583 -389 -122 -98 -369 -338 -479
-466 -483 -560 -781 -1229 -881 -1980 -25 -194 -37 -537 -22 -647 l7 -48 61
108 c33 59 272 474 531 922 259 448 690 1195 958 1660 268 465 493 855 501
868 8 12 11 22 7 22 -5 0 -50 -23 -100 -50z"/>
<path d="M15 3434 c55 -587 223 -1109 512 -1597 102 -172 267 -402 378 -527
216 -244 519 -516 719 -646 l29 -18 -13 24 c-7 14 -350 610 -763 1325 -412
715 -774 1343 -805 1395 -30 52 -56 97 -58 99 -3 3 -2 -22 1 -55z"/>
</g>
</svg>
